<?xml version="1.0" encoding="utf-8"?>
<!-- Generator: Adobe Illustrator 21.1.0, SVG Export Plug-In . SVG Version: 6.00 Build 0)  -->
<svg version="1.1" id="Calque_1" xmlns="http://www.w3.org/2000/svg" xmlns:xlink="http://www.w3.org/1999/xlink" x="0px" y="0px"
	 viewBox="0 0 473.8 130.2" style="enable-background:new 0 0 473.8 130.2;" xml:space="preserve">
<style type="text/css">
	.st0{fill:#FFFFFF;}
</style>
<g>
	<path class="st0" d="M452.8,51.2c1.4-4.2,14-11,14-11c-3.8,0-12.9,0.1-20.9,0.2l-4.1-1.2l1.2,10.3l-4.5-9c-1.8,0-3.3,0-4.4,0
		c2.8,11.2,5.7,22.8,8.7,34.7c-11.1-12.1-22.1-23.6-33-34.7c-6.4,0-9.5,0-15.9,0c2.2,11,4.5,22.3,6.9,33.9l7.6-6.1l-7,12.3l0.9,0.7
		c0.1,0.5,0.2,1.1,0.3,1.6c0.9,4.6,1.9,9.2,2.8,13.9c6.8,0.8,10.2,1.2,17,2.1c-1-4.6-2-9.2-3-13.7c-1.7-7.7-3.4-15.2-5-22.6
		c9.3,9.9,18.7,20.2,28.1,30.9l11-8.3l-7.2,12.6v0l-0.8,1.4l2.7,0.9c0.8,0.9,1.5,1.8,2.3,2.7c0.3,0.4,22.3,25.4,23.3,27.3
		C467.9,108.2,452.8,51.2,452.8,51.2z"/>
	<path class="st0" d="M62.8,61.7c-9.6,0.5-19.3,1-28.9,1.5c1-4,1.5-6.1,2.5-10c9.7-0.3,19.4-0.6,29.1-0.9c1-4.8,1.6-7.2,2.6-11.9
		c-14.6,0-44.7-0.2-59.3-0.2c0,0,13.5,7.4,12.3,11.8c-6.2,22.9-15.6,58-21.1,78.2c-0.5,0,24.2-27,24-27.5c2.7-10.5,4-15.7,6.5-25.9
		c9.9-0.9,19.8-1.7,29.6-2.5C61.2,69.2,61.8,66.7,62.8,61.7z"/>
	<path class="st0" d="M88.4,40.4C76.9,58.8,65.2,78.1,53.1,98.6c7.4-1,11.1-1.4,18.4-2.3c2.1-3.8,3.1-5.6,5.1-9.3
		c10.7-1,16.1-1.5,26.7-2.4c0.8,3.2,1.1,4.9,1.9,8.1c7.3-0.7,10.9-1,18.1-1.6c-5.6-17.5-10.8-34.5-15.5-50.9
		C100.1,40.3,96.2,40.3,88.4,40.4z M83.3,74.3C88.5,65,91,60.5,96,51.9c1.9,8.5,2.9,12.7,5,21.2C93.9,73.5,90.4,73.8,83.3,74.3z"/>
	<path class="st0" d="M168.7,40.3c-6.8,6.3-13.7,12.9-20.6,19.6c0.9-7.9,1.4-11.8,2.2-19.5c-6.2,0-9.3,0-15.4,0
		c-2.2,16.1-4.4,33-6.8,50.5c6.6-0.5,10-0.8,16.6-1.2c0.7-6.1,1-9.1,1.7-15c1.9-1.8,2.8-2.7,4.7-4.4c5.8,7.3,8.7,10.9,14.7,18.2
		c8.1-0.4,12.1-0.6,20.2-0.9c-8.1-8.5-16-16.9-23.6-25.3c8.5-7.6,17-14.9,25.4-21.9C180.1,40.2,176.3,40.2,168.7,40.3z"/>
	<path class="st0" d="M207.6,76.2c0.1-3.4,0.2-5.2,0.3-8.6c9.6-0.1,19.2-0.2,28.8-0.2c0-4.1,0-6.1,0-10.1c-9.5,0-19,0-28.5,0.1
		c0.1-3,0.2-4.6,0.3-7.6c9.6,0,19.2-0.1,28.8-0.1c0-3.9,0-5.8,0-9.6c-14.6,0-29.3,0-43.9,0c-0.9,15.1-1.8,30.8-2.7,47.1
		c15.6-0.5,31.1-0.8,46.7-0.8c0-4.2,0-6.3,0-10.5C227.5,76,217.6,76.1,207.6,76.2z"/>
	<path class="st0" d="M287.3,61.2c-2.1-8.6-4.4-17.1-7.1-25.6c-2.7-8.4-9.1-27.1-12.1-35.7c1.1,9,3.9,28.5,5.3,37.3
		c1.4,8.7,3.2,17.4,5.2,26c2,8.6,4.4,17.1,7.1,25.6c2.7,8.4,10,31,13.1,39.5c-1.1-9-4.8-32.4-6.2-41.2
		C291.1,78.5,289.4,69.8,287.3,61.2z"/>
	<path class="st0" d="M265.5,68.2c-1.2-5-2.6-10-4.1-14.9c-1.6-4.9-5.3-15.9-7.1-20.8c0.7,5.3,2.3,16.7,3.1,21.8
		c0.8,5.1,1.8,10.2,3,15.2c1.2,5,2.6,10,4.1,14.9c1.6,4.9,5.9,18.1,7.6,23.1c-0.7-5.3-2.8-19-3.6-24.1
		C267.7,78.3,266.7,73.2,265.5,68.2z"/>
	<path class="st0" d="M306.5,59.2c-1.2-5-2.6-10-4.1-14.9c-1.6-4.9-5.3-15.9-7.1-20.8c0.7,5.3,2.3,16.7,3.1,21.8
		c0.8,5.1,1.8,10.2,3,15.2c1.2,5,2.6,10,4.1,14.9c1.6,4.9,5.9,18.1,7.6,23.1c-0.7-5.3-2.8-19-3.6-24.1
		C308.7,69.3,307.7,64.2,306.5,59.2z"/>
	<path class="st0" d="M354,39.5c-14,0.3-30.5,7.7-29.2,24.7c1.3,17.7,23.3,27.4,37.5,29c16,1.8,32.7-7.7,29-26
		C387.8,49.6,369.2,39.2,354,39.5z M361.6,72.5c-0.1,2.5-0.4,5.1-1.2,7.7c-1.3-2.4-2.1-4.8-2.7-7.3c-0.6-2.5-1-4.9-1.3-7.4
		c-0.2-2.5-0.3-5-0.2-7.6c0.1-2.5,0.4-5.1,1.2-7.7c1.3,2.4,2.1,4.8,2.7,7.3c0.6,2.5,1,4.9,1.3,7.4C361.6,67.4,361.7,70,361.6,72.5z"
		/>
</g>
</svg>
