<?xml version="1.0" encoding="utf-8"?>
<!-- Generator: Adobe Illustrator 21.1.0, SVG Export Plug-In . SVG Version: 6.00 Build 0)  -->
<svg version="1.1" id="Calque_1" xmlns="http://www.w3.org/2000/svg" xmlns:xlink="http://www.w3.org/1999/xlink" x="0px" y="0px"
	 viewBox="0 0 68.5 128.4" style="enable-background:new 0 0 68.5 128.4;" xml:space="preserve">
<style type="text/css">
	.st0{fill:#FFFFFF;}
</style>
<g>
	<path class="st0" d="M339.4-423.7c1.4-4.2,14-11,14-11c-3.8,0-12.9,0.1-20.9,0.2l-4.1-1.2l1.2,10.3l-4.5-9c-1.8,0-3.3,0-4.4,0
		c2.8,11.2,5.7,22.8,8.7,34.7c-11.1-12.1-22.1-23.6-33-34.7c-6.4,0-9.5,0-15.9,0c2.2,11,4.5,22.3,6.9,33.9l7.6-6.1l-7,12.3l0.9,0.7
		c0.1,0.5,0.2,1.1,0.3,1.6c0.9,4.6,1.9,9.2,2.8,13.9c6.8,0.8,10.2,1.2,17,2.1c-1-4.6-2-9.2-3-13.7c-1.7-7.7-3.4-15.2-5-22.6
		c9.3,9.9,18.7,20.2,28.1,30.9l11-8.3l-7.2,12.6v0l-0.8,1.4l2.7,0.9c0.8,0.9,1.5,1.8,2.3,2.7c0.3,0.4,22.3,25.4,23.3,27.3
		C354.4-366.7,339.4-423.7,339.4-423.7z"/>
	<path class="st0" d="M-50.6-413.2c-9.6,0.5-19.3,1-28.9,1.5c1-4,1.5-6.1,2.5-10c9.7-0.3,19.4-0.6,29.1-0.9c1-4.8,1.6-7.2,2.6-11.9
		c-14.6,0-44.7-0.2-59.3-0.2c0,0,13.5,7.4,12.3,11.8c-6.2,22.9-15.6,58-21.1,78.2c-0.5,0,24.2-27,24-27.5c2.7-10.5,4-15.7,6.5-25.9
		c9.9-0.9,19.8-1.7,29.6-2.5C-52.2-405.7-51.7-408.2-50.6-413.2z"/>
	<path class="st0" d="M-25-434.5c-11.5,18.4-23.3,37.8-35.4,58.3c7.4-1,11.1-1.4,18.4-2.3c2.1-3.8,3.1-5.6,5.1-9.3
		c10.7-1,16.1-1.5,26.7-2.4c0.8,3.2,1.1,4.9,1.9,8.1c7.3-0.7,10.9-1,18.1-1.6c-5.6-17.5-10.8-34.5-15.5-50.9
		C-13.4-434.6-17.3-434.6-25-434.5z M-30.1-400.6c5.2-9.2,7.8-13.7,12.7-22.4c1.9,8.5,2.9,12.7,5,21.2
		C-19.5-401.4-23.1-401.1-30.1-400.6z"/>
	<path class="st0" d="M55.3-434.7c-6.8,6.3-13.7,12.9-20.6,19.6c0.9-7.9,1.4-11.8,2.2-19.5c-6.2,0-9.3,0-15.4,0
		c-2.2,16.1-4.4,33-6.8,50.5c6.6-0.5,10-0.8,16.6-1.2c0.7-6.1,1-9.1,1.7-15c1.9-1.8,2.8-2.7,4.7-4.4c5.8,7.3,8.7,10.9,14.7,18.2
		c8.1-0.4,12.1-0.6,20.2-0.9c-8.1-8.5-16-16.9-23.6-25.3c8.5-7.6,17-14.9,25.4-21.9C66.7-434.7,62.9-434.7,55.3-434.7z"/>
	<path class="st0" d="M94.2-398.7c0.1-3.4,0.2-5.2,0.3-8.6c9.6-0.1,19.2-0.2,28.8-0.2c0-4.1,0-6.1,0-10.1c-9.5,0-19,0-28.5,0.1
		c0.1-3,0.2-4.6,0.3-7.6c9.6,0,19.2-0.1,28.8-0.1c0-3.9,0-5.8,0-9.6c-14.6,0-29.3,0-43.9,0c-0.9,15.1-1.8,30.8-2.7,47.1
		c15.6-0.5,31.1-0.8,46.7-0.8c0-4.2,0-6.3,0-10.5C114.1-398.9,104.2-398.8,94.2-398.7z"/>
	<path class="st0" d="M173.9-413.7c-2.1-8.6-4.4-17.1-7.1-25.6c-2.7-8.4-9.1-27.1-12.1-35.7c1.1,9,3.9,28.5,5.3,37.3
		c1.4,8.7,3.2,17.4,5.2,26c2,8.6,4.4,17.1,7.1,25.6c2.7,8.4,10,31,13.1,39.5c-1.1-9-4.8-32.4-6.2-41.2
		C177.7-396.4,175.9-405.1,173.9-413.7z"/>
	<path class="st0" d="M152.1-406.7c-1.2-5-2.6-10-4.1-14.9c-1.6-4.9-5.3-15.9-7.1-20.8c0.7,5.3,2.3,16.7,3.1,21.8
		c0.8,5.1,1.8,10.2,3,15.2c1.2,5,2.6,10,4.1,14.9c1.6,4.9,5.9,18.1,7.6,23.1c-0.7-5.3-2.8-19-3.6-24.1
		C154.3-396.6,153.3-401.7,152.1-406.7z"/>
	<path class="st0" d="M193.1-415.7c-1.2-5-2.6-10-4.1-14.9c-1.6-4.9-5.3-15.9-7.1-20.8c0.7,5.3,2.3,16.7,3.1,21.8
		c0.8,5.1,1.8,10.2,3,15.2c1.2,5,2.6,10,4.1,14.9c1.6,4.9,5.9,18.1,7.6,23.1c-0.7-5.3-2.8-19-3.6-24.1
		C195.3-405.6,194.3-410.7,193.1-415.7z"/>
	<path class="st0" d="M240.6-435.4c-14,0.3-30.5,7.7-29.2,24.7c1.3,17.7,23.3,27.4,37.5,29c16,1.8,32.7-7.7,29-26
		C274.4-425.3,255.7-435.7,240.6-435.4z M248.2-402.4c-0.1,2.5-0.4,5.1-1.2,7.7c-1.3-2.4-2.1-4.8-2.7-7.3c-0.6-2.5-1-4.9-1.3-7.4
		c-0.2-2.5-0.3-5-0.2-7.6c0.1-2.5,0.4-5.1,1.2-7.7c1.3,2.4,2.1,4.8,2.7,7.3c0.6,2.5,1,4.9,1.3,7.4
		C248.2-407.5,248.3-404.9,248.2-402.4z"/>
</g>
<path class="st0" d="M346.4-192.7c1.4-4.2,14-11,14-11c-3.8,0-12.9,0.1-20.9,0.2l-4.1-1.2l1.2,10.3l-4.5-9c-1.8,0-3.3,0-4.4,0
	c2.8,11.2,5.7,22.8,8.7,34.7c-11.1-12.1-22.1-23.6-33-34.7c-6.4,0-9.5,0-15.9,0c2.2,11,4.5,22.3,6.9,33.9l7.6-6.1l-7,12.3l0.9,0.7
	c0.1,0.5,0.2,1.1,0.3,1.6c0.9,4.6,1.9,9.2,2.8,13.9c6.8,0.8,10.2,1.2,17,2.1c-1-4.6-2-9.2-3-13.7c-1.7-7.7-3.4-15.2-5-22.6
	c9.3,9.9,18.7,20.2,28.1,30.9l11-8.3l-7.2,12.6v0l-0.8,1.4l2.7,0.9c0.8,0.9,1.5,1.8,2.3,2.7c0.3,0.4,22.3,25.4,23.3,27.3
	C361.4-135.7,346.4-192.7,346.4-192.7z"/>
<path class="st0" d="M-18-203.5c-11.5,18.4-23.3,37.8-35.4,58.3c7.4-1,11.1-1.4,18.4-2.3c2.1-3.8,3.1-5.6,5.1-9.3
	c10.7-1,16.1-1.5,26.7-2.4c0.8,3.2,1.1,4.9,1.9,8.1c7.3-0.7,10.9-1,18.1-1.6c-5.6-17.5-10.8-34.5-15.5-50.9
	C-6.4-203.6-10.3-203.6-18-203.5z M-23.1-169.6c5.2-9.2,7.8-13.7,12.7-22.4c1.9,8.5,2.9,12.7,5,21.2
	C-12.5-170.4-16.1-170.1-23.1-169.6z"/>
<path class="st0" d="M62.3-203.7c-6.8,6.3-13.7,12.9-20.6,19.6c0.9-7.9,1.4-11.8,2.2-19.5c-6.2,0-9.3,0-15.4,0
	c-2.2,16.1-4.4,33-6.8,50.5c6.6-0.5,10-0.8,16.6-1.2c0.7-6.1,1-9.1,1.7-15c1.9-1.8,2.8-2.7,4.7-4.4c5.8,7.3,8.7,10.9,14.7,18.2
	c8.1-0.4,12.1-0.6,20.2-0.9c-8.1-8.5-16-16.9-23.6-25.3c8.5-7.6,17-14.9,25.4-21.9C73.7-203.7,69.9-203.7,62.3-203.7z"/>
<path class="st0" d="M101.2-167.7c0.1-3.4,0.2-5.2,0.3-8.6c9.6-0.1,19.2-0.2,28.8-0.2c0-4.1,0-6.1,0-10.1c-9.5,0-19,0-28.5,0.1
	c0.1-3,0.2-4.6,0.3-7.6c9.6,0,19.2-0.1,28.8-0.1c0-3.9,0-5.8,0-9.6c-14.6,0-29.3,0-43.9,0c-0.9,15.1-1.8,30.8-2.7,47.1
	c15.6-0.5,31.1-0.8,46.7-0.8c0-4.2,0-6.3,0-10.5C121.1-167.9,111.2-167.8,101.2-167.7z"/>
<g>
	<path class="st0" d="M33.1,61.2C31,52.6,28.6,44.1,26,35.7C23.2,27.2,16.9,8.5,13.8,0c1.1,9,3.9,28.5,5.3,37.3
		c1.4,8.7,3.2,17.4,5.2,26c2,8.6,4.4,17.1,7.1,25.6c2.7,8.4,10,31,13.1,39.5c-1.1-9-4.8-32.4-6.2-41.2
		C36.9,78.5,35.1,69.8,33.1,61.2z"/>
	<path class="st0" d="M11.2,68.2c-1.2-5-2.6-10-4.1-14.9C5.5,48.3,1.8,37.4,0,32.4c0.7,5.3,2.3,16.7,3.1,21.8
		c0.8,5.1,1.8,10.2,3,15.2c1.2,5,2.6,10,4.1,14.9c1.6,4.9,5.9,18.1,7.6,23.1c-0.7-5.3-2.8-19-3.6-24.1
		C13.5,78.3,12.4,73.2,11.2,68.2z"/>
	<path class="st0" d="M52.2,59.2c-1.2-5-2.6-10-4.1-14.9c-1.6-4.9-5.3-15.9-7.1-20.8c0.7,5.3,2.3,16.7,3.1,21.8
		c0.8,5.1,1.8,10.2,3,15.2c1.2,5,2.6,10,4.1,14.9c1.6,4.9,5.9,18.1,7.6,23.1c-0.7-5.3-2.8-19-3.6-24.1
		C54.5,69.3,53.4,64.2,52.2,59.2z"/>
</g>
<path class="st0" d="M247.6-204.4c-14,0.3-30.5,7.7-29.2,24.7c1.3,17.7,23.3,27.4,37.5,29c16,1.8,32.7-7.7,29-26
	C281.4-194.3,262.7-204.7,247.6-204.4z M255.2-171.4c-0.1,2.5-0.4,5.1-1.2,7.7c-1.3-2.4-2.1-4.8-2.7-7.3c-0.6-2.5-1-4.9-1.3-7.4
	c-0.2-2.5-0.3-5-0.2-7.6c0.1-2.5,0.4-5.1,1.2-7.7c1.3,2.4,2.1,4.8,2.7,7.3c0.6,2.5,1,4.9,1.3,7.4
	C255.2-176.5,255.3-173.9,255.2-171.4z"/>
<g>
	<path class="st0" d="M63.2,56.7c-9.6,0.5-19.3,1-28.9,1.5c1-4,1.5-6.1,2.5-10c9.7-0.3,19.4-0.6,29.1-0.9c1-4.8,1.6-7.2,2.6-11.9
		c-14.6,0-44.7-0.2-59.3-0.2c0,0,13.5,7.4,12.3,11.8c-6.2,22.9-15.6,58-21.1,78.2c-0.5,0,24.2-27,24-27.5c2.7-10.5,4-15.7,6.5-25.9
		c9.9-0.9,19.8-1.7,29.6-2.5C61.6,64.2,62.1,61.7,63.2,56.7z"/>
</g>
</svg>
