<?xml version="1.0" encoding="utf-8"?>
<!-- Generator: Adobe Illustrator 21.1.0, SVG Export Plug-In . SVG Version: 6.00 Build 0)  -->
<svg version="1.1" xmlns="http://www.w3.org/2000/svg" xmlns:xlink="http://www.w3.org/1999/xlink" x="0px" y="0px"
	 viewBox="0 0 325.5 174.1" style="enable-background:new 0 0 325.5 174.1;" xml:space="preserve">
<style type="text/css">
	.st0{fill:#7D7F68;}
	.st1{fill:#C7A008;}
	.st2{opacity:0.2;}
	.st3{fill:#1D2C5E;}
	.st4{fill:#FFFFFF;}
	.st5{font-family:'OpenSans-CondensedLight';}
	.st6{font-size:29.9293px;}
	.st7{letter-spacing:1;}
	.st8{font-family:'OpenSans-CondensedBold';}
	.st9{letter-spacing:4;}
	.st10{fill:none;stroke:#FFFFFF;stroke-width:0.5;stroke-linecap:round;stroke-linejoin:round;}
	.st11{fill:none;stroke:#FFFFFF;stroke-width:0.5;stroke-linecap:round;stroke-linejoin:round;stroke-dasharray:0.101,2.0197;}
	.st12{fill:#FFFFFF;stroke:#FFFFFF;stroke-width:0.5;stroke-linecap:round;stroke-linejoin:round;stroke-miterlimit:10;}
</style>
<g id="Calque_3">
</g>
<g id="Layer_1" inkscape:version="0.48.4 r9939" sodipodi:docname="English_Pokémon_logo.svg" xmlns:cc="http://creativecommons.org/ns#" xmlns:dc="http://purl.org/dc/elements/1.1/" xmlns:inkscape="http://www.inkscape.org/namespaces/inkscape" xmlns:rdf="http://www.w3.org/1999/02/22-rdf-syntax-ns#" xmlns:sodipodi="http://sodipodi.sourceforge.net/DTD/sodipodi-0.dtd" xmlns:svg="http://www.w3.org/2000/svg">
	
		<sodipodi:namedview  bordercolor="#666666" borderopacity="1" gridtolerance="10" guidetolerance="10" id="namedview103" inkscape:current-layer="Layer_1" inkscape:cx="134.7345" inkscape:cy="49.407001" inkscape:pageopacity="0" inkscape:pageshadow="2" inkscape:window-height="706" inkscape:window-maximized="1" inkscape:window-width="1280" inkscape:window-x="-8" inkscape:window-y="-8" inkscape:zoom="4.1563223" objecttolerance="10" pagecolor="#ffffff" showgrid="false">
		</sodipodi:namedview>
	<path id="path88" class="st0" d="M172.7,63.4c-0.1,0.1-0.1,0.1-0.2,0.2C172.6,63.5,172.7,63.5,172.7,63.4L172.7,63.4z"/>
	<polygon id="polygon90" class="st0" points="178.6,57.9 182.1,54.3 180.9,55.5 180.9,55.4 179.9,56.5 176.5,60.1 179.7,63 
		180.3,59.4 181.9,60.8 	"/>
	<path id="path94" class="st0" d="M136,63.9L136,63.9L136,63.9z"/>
	<path id="path98" class="st1" d="M180.3,70.6c-3.5,2.9-7.4,4.7-12.6,6c-1.1,0.3-2.3,0.5-3.3,0.5c-8.3,0.8-15.2-3-17.8-9.1
		c-0.3-0.7-0.6-1.5-0.8-2.3c-1.2-5.2-0.2-9.8,2.4-13.5c0.3-0.4,0.5-0.7,0.8-1c-0.1,0.1-0.3,0.2-0.4,0.3c-1,0.9-1.9,1.8-2.6,2.9
		c-2.6,3.6-3.6,8.3-2.4,13.5c0.2,0.8,0.4,1.6,0.8,2.3c2.6,6.2,9.6,10,17.8,9.2c1.1-0.1,2.2-0.3,3.4-0.6c5.2-1.3,9.2-3.1,12.6-6
		c0.8-0.7,1.7-1.5,2.5-2.3l-0.1-0.1C180.4,70.4,180.3,70.5,180.3,70.6"/>
	<polygon id="polygon100" class="st1" points="122,54.9 131.2,41.9 130.8,41.5 121.9,54.1 	"/>
	<g class="st2">
		<path id="path96" d="M155,67.1c0.3,0.3,0,0.1,0.3,0.3l2.1-1.5c-0.3-0.2-0.6-0.5-0.9-0.7c-3-2.8-2.2-9-0.3-12.4
			C151,56.9,151.3,63.4,155,67.1"/>
		<polygon id="polygon104" points="171.7,31.8 174.9,30.4 169,22.8 167,25.5 		"/>
		<path id="path106" d="M82.1,50.6c-14.9-18.2-41.8-8.4-51.5,0.1l0.4,0.7c2.2-1.3,4.6-2.4,7-3.5c9.6-4.1,18.8-5.3,26.1-4
			c2.6,0.3,5.3,1.1,7.7,2.7c3.3,1.9,5.8,4.5,7.3,7.9c2.6,6,0.3,14-5.8,20.6C81,68,86.2,61.2,82.1,50.6z"/>
		<path id="path108" d="M112.5,71.8c-0.1-0.3-0.1-0.7-0.2-1c-0.8-3-2.6-5.4-5-7c-3.8-2.6-9.2-3.1-14.5-0.9c-2.8,1.2-5.2,3.1-7.2,5.3
			c1.5-1.3,3.2-2.3,5-3.1c5.3-2.3,10.7-1.7,14.5,0.9c2.4,1.6,4.2,4,5,7c0.1,0.3,0.2,0.7,0.2,1c0.2,1.2,0.3,2.3,0.3,3.5
			c-0.1,3.5-1.4,7-3.5,10c-0.3,0.5-0.7,0.9-1.1,1.4c1.2-1.1,2.3-2.2,3.2-3.5c2.2-3,3.4-6.5,3.6-10C112.9,74.1,112.8,73,112.5,71.8"
			/>
		<path id="path110" d="M97.8,67.4c0,0,2.2-2.2,2.1-2.2c-2.7-0.1-3.9,2.5-4,2.7C96.6,67.6,97.2,67.4,97.8,67.4"/>
		<path id="path112" d="M103,70.5c0.1,0.4,0.2,0.7,0.2,1.1c0,0.6-0.1,1.1-0.4,1.6c0.4-0.2,3.6-1.8,2.4-5
			C105.2,68.4,102.9,70.5,103,70.5"/>
		<path id="path114" d="M90.5,72.3c0-1.3,2.3-4.6,3-5.7c-3.6,2.3-5.2,5.4-5.2,7.8c0,4.2,3.7,7.6,8.1,7.6c2.1,0,5.9-1.1,8.4-5.1
			c-1.3,0.9-4.6,2.9-6.4,2.9C94.1,79.8,90.5,76.5,90.5,72.3"/>
		<polygon id="polygon116" points="121.5,76.2 121.6,93.1 124.3,93.3 123.7,73.9 		"/>
		<polygon id="polygon118" points="106.1,43.9 106.1,45.4 118.9,41.6 119.8,57.8 121.9,54.8 121.5,38.6 		"/>
		<polygon id="polygon120" points="144.6,49.7 132.6,38.7 131.2,41.9 141.7,51.8 		"/>
		<path id="path122" d="M142.8,70.2l-14.1-4.7l-2,2.2l14,5.6c1.6,3,4,5.6,7,7.4c2.9,1.8,6.3,2.9,9.8,3.2v6.9l2.2,1.1l0.7-10.4
			L142.8,70.2L142.8,70.2z"/>
		<path id="path124" d="M165.4,68.2c3.5-0.8,5.4-2.6,7.2-4.6c-1.3,1.1-7.7,2.5-8.8,2.8l-2.1,2.3C162.6,68.8,164.2,68.5,165.4,68.2"
			/>
		<path id="path126" d="M159.1,44.3c-6.4,0.8-9.7,6.2-10.2,6.8c2.4-2,5.3-3.5,8.6-4.2c7.9-1.9,14.8,0.5,19.1,5.8l2.7-2.2
			C175,45.2,167,42.4,159.1,44.3"/>
		<path id="path128" d="M180.5,70.4c0.8-0.6,2.1-1.3,2.9-2.1l-8.5-7.6c-0.7,0.8-1.2,2.1-2,2.7L180.5,70.4L180.5,70.4z"/>
		<path id="path130" d="M224.2,90.8c-8.9-7.4-8.4-23.1-4-28.1l-3.9-24.7l-8.6,1.1l-0.4,2.2h6.5l3.5,22.4c-4.4,5-6.5,11.7-5.1,17.9
			c1.1,4.8,4.1,8.6,8.3,10.8c0.4,0.2,0.9,0.4,1.3,0.6l0.1,0.3l2.6,0.4C224.4,93.8,224.6,91,224.2,90.8L224.2,90.8z"/>
		<polygon id="polygon132" points="189.8,41.6 189.5,43.8 199.3,43.8 202.2,59.6 204.4,57.4 202.1,40.7 		"/>
		<polygon id="polygon134" points="206.7,72.4 203.5,80.6 204.3,82.8 208.8,70.3 		"/>
		<polygon id="polygon136" points="197.2,67.2 195.1,69.4 192.7,84.2 195,85.1 		"/>
		<path id="path138" d="M241.4,62.5c1.3,0.9,2.4,2.1,3.2,3.5c0.7,1.1,1.1,2.2,1.5,3.6c1.1,4.5-0.2,9.3-3,13.1
			c-0.3,0.4-0.6,0.8-0.9,1.1c1.1-1,15.1-11.3,1.5-24.8c-15-4.9-20.7,4.8-21.2,5.5c1.6-1.3,3.4-2.5,5.4-3.2
			C232.9,59.3,237.9,60,241.4,62.5"/>
		<path id="path140" d="M233.8,63.5c0,0.1,2.2-2.2,2.2-2.2c-2.7,0.1-4,1.4-3.8,2c-0.2,0.2-0.3,0.5-0.4,0.7
			C232.4,63.7,233.5,63.5,233.8,63.5"/>
		<path id="path142" d="M238.9,66.8c0.1,0.4,0.1,0.7,0.1,1.1c0,0.5-0.2,1-0.4,1.4c0.4-0.2,3.6-1.2,2.4-4.8
			C241.1,64.8,238.8,66.9,238.9,66.8"/>
		<path id="path144" d="M231.8,78.2c3,0.1,6.4-1.7,8.8-5c-6.1,1.3-12.6-9-12-10c-2.3,1.7-4.4,4.9-4.5,7.2
			C223.9,74.6,227.4,78,231.8,78.2"/>
		<polygon id="polygon146" points="265.5,104.8 266.9,105.8 284.5,53 271.3,50 271.2,53.1 281.8,55.4 		"/>
		<polygon id="polygon148" points="244.6,44.3 244.7,47.3 258.7,50.1 264.1,75.6 266.3,73.4 261.1,47.6 		"/>
		<polygon id="polygon150" points="255.3,73.4 251.5,95.2 253.7,95.9 257.5,71.3 		"/>
		<polygon id="polygon152" points="73.7,103.2 67.2,79.5 64.8,81.2 70.9,103.9 		"/>
		<path id="path154" d="M72,67.5c-1.5,1.6-4.9,4.7-6.8,5.9l-1.2-3.7l-2.5-8.2L60,56.1l-1.6,2l1.6,5.5l2.5,8.1l1.2,3.7
			C66.3,73.8,70.1,70.7,72,67.5"/>
		<path id="path156" d="M164.8,53.5c-2.1-0.8-5-0.6-6.6,1.2c-0.4,0.4-1.1,1.4-1.3,1.9c1.5-1.2,4.3-1.5,6-0.8L164.8,53.5L164.8,53.5z
			"/>
		<path id="path158" d="M70.1,60.9c-0.2-1.2-1.4-2.2-2-2.5c-1-0.5-2.9-0.6-4.2-0.3c0.2,0.8,0.5,1.8,0.6,2.2c0.5,0.1,1.4,0.2,1.9,0.4
			c0.6,0.3,1.6,0.9,1.8,2.2c0.3,1.6,0.2,3.2-0.4,4.4C69.7,65.4,70.6,63.4,70.1,60.9"/>
	</g>
	<g id="flowRoot3115" transform="matrix(0.93943959,0,0,0.93943959,14.793383,6.4307935)">
		<path id="path3084" d="M275.7,108.3v-2.5h-0.9v-0.3h2.3v0.3h-0.9v2.5H275.7z"/>
		<path id="path3086" d="M277.4,108.3v-2.9h0.6l0.7,2c0.1,0.2,0.1,0.3,0.1,0.4c0-0.1,0.1-0.3,0.2-0.5l0.7-2h0.5v2.9h-0.4v-2.4
			l-0.8,2.4h-0.3l-0.8-2.4v2.4H277.4z"/>
	</g>
</g>
<g id="Calque_2">
	<path class="st3" d="M60,56.8l1.6,5.5l2.5,8.2l1.2,3.7c4.7-3,9.4-6.6,8.2-13.3C72.5,56,66.2,53.3,60,56.8z M67.2,68.2
		c-0.7-2.2-2.2-7-2.2-7c0,0-0.3-1-0.7-2.2c1.3-0.2,2.6-0.1,3.6,0.4c0.6,0.3,1.6,0.9,1.8,2.2C70.4,64.3,69.5,66.3,67.2,68.2z"/>
	<path class="st4" d="M60,56.8l1.6,5.5l2.5,8.2l1.2,3.7c4.7-3,9.4-6.6,8.2-13.3C72.5,56,66.2,53.3,60,56.8z M67.2,68.2
		c-0.7-2.2-2.2-7-2.2-7c0,0-0.3-1-0.7-2.2c1.3-0.2,2.6-0.1,3.6,0.4c0.6,0.3,1.6,0.9,1.8,2.2C70.4,64.3,69.5,66.3,67.2,68.2z"/>
	<path class="st3" d="M168.1,53.2c-3.5-3.2-8.9-3-12.1,0.5c-3.2,3.5-3,8.9,0.5,12.1c0.3,0.3,0.6,0.5,0.9,0.7l11.3-12.8
		C168.5,53.6,168.3,53.4,168.1,53.2z M157.4,62.2c-1.1-2-0.9-4.6,0.8-6.4c1.6-1.7,4-2.2,6.1-1.4L157.4,62.2z"/>
	<path class="st4" d="M168.1,53.2c-3.5-3.2-8.9-3-12.1,0.5c-3.2,3.5-3,8.9,0.5,12.1c0.3,0.3,0.6,0.5,0.9,0.7l11.3-12.8
		C168.5,53.6,168.3,53.4,168.1,53.2z M157.4,62.2c-1.1-2-0.9-4.6,0.8-6.4c1.6-1.7,4-2.2,6.1-1.4L157.4,62.2z"/>
	<path class="st3" d="M241,64.7c0.1,0.4,0.1,0.8,0.1,1.2c-0.1,2.4-2.3,4.2-5,4.1c-2.7-0.1-4.8-2.1-4.7-4.5c0.1-2.2,2.1-4,4.5-4.1
		c-0.5-0.1-1-0.2-1.5-0.2c-4.5-0.2-8.1,3-8.3,6.9c-0.2,4.2,3.2,7.7,7.6,7.8c4.5,0.2,8.1-3,8.3-7.2C242.2,67.2,241.8,65.9,241,64.7
		L241,64.7z"/>
	<path class="st4" d="M241,64.7c0.1,0.4,0.1,0.8,0.1,1.2c-0.1,2.4-2.3,4.2-5,4.1c-2.7-0.1-4.8-2.1-4.7-4.5c0.1-2.2,2.1-4,4.5-4.1
		c-0.5-0.1-1-0.2-1.5-0.2c-4.5-0.2-8.1,3-8.3,6.9c-0.2,4.2,3.2,7.7,7.6,7.8c4.5,0.2,8.1-3,8.3-7.2C242.2,67.2,241.8,65.9,241,64.7
		L241,64.7z"/>
	<path class="st3" d="M105.3,69.5L105.3,69.5c0,2.4-2.2,4.3-4.8,4.3c-2.7,0-4.8-1.9-4.8-4.3c0-2.2,1.9-4.1,4.4-4.3
		c-0.5-0.1-1-0.1-1.5-0.1c-4.5,0-8,3.3-8,7.3c0,4.2,3.5,7.5,7.9,7.5c4.5,0,8-3.3,8-7.5c0-1.5-0.5-2.8-1.3-4
		C105.3,68.7,105.3,69.1,105.3,69.5z"/>
	<path class="st4" d="M105.3,69.5L105.3,69.5c0,2.4-2.2,4.3-4.8,4.3c-2.7,0-4.8-1.9-4.8-4.3c0-2.2,1.9-4.1,4.4-4.3
		c-0.5-0.1-1-0.1-1.5-0.1c-4.5,0-8,3.3-8,7.3c0,4.2,3.5,7.5,7.9,7.5c4.5,0,8-3.3,8-7.5c0-1.5-0.5-2.8-1.3-4
		C105.3,68.7,105.3,69.1,105.3,69.5z"/>
	<path class="st3" d="M268.9,45.3l-2,8.2l-1.8-9.1L240.5,39l0.2,13.7l3.7,0.8l-0.3,2.5c0,0-0.1,0-0.1-0.1
		c-4.6-2.4-10.3-2.7-15.6-0.6c-1.8,0.7-3.5,1.6-5,2.7l-3.7-23.4h-16.3l-0.4,2.7h-17.2l-2,12l-1.4-1.8c-4.2-5.1-10.2-7.9-16.9-8.1
		l14.6-7.8l-10.2-15.2l-18.4,21.2l3.2,3.9c-2.9,1.2-5.4,2.8-7.5,4.8l-15.8-14l-5.5,10.6l0.2-10.2l-24.7,7.9l0.6,13.2l4.2-1.1
		l0.6,6.7c-4.8-2.2-10.6-2.1-15.9,0.2c-1.6,0.7-3.1,1.5-4.4,2.5c0.9-4.1,0.7-8.1-0.9-11.7c-1.8-4.2-5.1-7.8-9-10
		c-2.8-1.9-6.1-3-9.6-3.4c-8.5-1.5-18.8,0-28.9,4.3c-3.7,1.6-7.2,3.4-10.3,5.4L24,49.1l2.4,4l7.4,12.5c0,0,2.3,3.8,2.3,3.8l4-2
		l0.6-0.3l18.4,41l1.8,3.9l4.1-1.3l9.9-3.2l4.4-1.4l-1.1-4.4l-5.3-20.2c1.5-1.1,2.9-2.3,4.2-3.6c-0.3,2.4-0.1,4.9,0.5,7.2
		c1.4,4.9,4.6,8.8,9.1,10.9c4.8,2.3,10.7,2.3,16.1,0c2.7-1.2,5.2-2.8,7.2-4.9l0.7,8.1l17.4-2.6l0-15.6l36.3,18V81.8
		c1.5-0.1,2.9-0.4,4.4-0.7c4-1,7.4-2.3,10.5-4.1l-1.5,9.3l19.6,3.1l1.1-7l5.1,9.5l3.1-6l1.1,9.9l22.2,3.9l-1.2-7.5
		c3,0.3,6.2-0.1,9.3-1.2c0.7-0.3,1.5-0.6,2.1-1l-0.9,8l14.8,2.1l0.1,6.1l15.4,4.8l20.1-60.5L268.9,45.3L268.9,45.3z M182.1,54.3
		l1-1.1l-1.2,7.6l-3.2-2.9L182.1,54.3z M169,23.1l5.4,7.3L159,38.1l-1.1-1.6L169,23.1z M67.2,79.5l6.1,23.6l-9.9,3.2L43,60.7
		c-1.1,0.6-3.2,1.6-5,2.5l-7.4-12.5c2.9-1.9,6.2-3.5,9.6-5c9.6-4.1,18.8-5.3,26.1-4c2.6,0.3,5.3,1.1,7.7,2.7
		c3.3,1.9,5.8,4.5,7.3,7.9C84.8,60.4,78.9,72.2,67.2,79.5z M109.3,85.3c-2.1,2.9-4.9,5.2-8.3,6.7c-8.6,3.7-17.2,0-19.5-8.2
		c-2.2-7.9,3-17.3,11.3-20.9c5.3-2.3,10.7-1.7,14.5,0.9c2.4,1.6,4.2,4,5,7c0.1,0.3,0.2,0.7,0.2,1c0.2,1.2,0.3,2.3,0.3,3.5
		C112.7,78.8,111.4,82.3,109.3,85.3z M159.7,92l-36.1-18l0.1,18.9l-9.3,1.3l-0.6-7.8c2.9-4.9,3.9-10.8,2.4-16.1
		c-0.8-2.9-2.3-5.5-4.4-7.5l-1.3-15.9l-4.2,1.1l-0.2-4l15-4.5l0.9,15.4l11-15.5l10.8,10.3l-15.1,15.9l14.2,5.6c1.6,3,4,5.5,7,7.4
		c2.9,1.8,6.3,2.9,9.8,3.2L159.7,92L159.7,92z M141,65.8l-5-1.9l4.7-4.5C140.5,61.4,140.6,63.6,141,65.8z M180.3,70.6
		c-3.5,2.9-7.4,4.7-12.6,6c-1.1,0.3-2.3,0.5-3.3,0.5c-8.3,0.8-15.2-3-17.8-9.1c-0.3-0.7-0.6-1.5-0.8-2.3c-1.2-5.2-0.2-9.8,2.4-13.5
		c0.7-1.1,1.6-2,2.6-2.9c2.4-2.2,5.5-3.7,9-4.6c7.9-1.9,14.8,0.5,19.1,5.7l-15,16c1,0.2,2.6-0.1,3.8-0.4c3.6-0.9,5.6-2.8,7.3-4.8
		l6,5.4l1.8,1.6C181.9,69.1,181.1,69.8,180.3,70.6z M212.1,91.9l-3.3-21.6l-4.6,11.9l-6.9-14.9h-0.1l-2.7,17.3l-11.5-2l1.6-9.6
		c0.4-0.4,0.9-0.8,1.3-1.3l3.7-3.8l-3.6-3.3l3.9-23h11.6l2.9,15.9l3.3-18.4h8.3l3.5,22.4c-4.4,5-6.5,11.7-5.1,17.9
		c1.1,4.8,4.1,8.6,8.3,10.9c0.4,0.2,0.9,0.4,1.3,0.6l0.4,2.9L212.1,91.9z M240.8,84.8c-1.3,0.9-2.7,1.7-4.2,2.2
		c-3,1.1-5.9,1.4-8.6,0.8c-1.8-0.4-3.5-1.1-5-2.1c-2.3-1.7-4-4.1-4.8-7.2c-0.9-3.7-0.1-7.7,1.9-11.2c1-1.7,2.3-3.3,3.8-4.7
		c1.7-1.5,3.7-2.8,5.8-3.6c5.1-1.9,10.1-1.2,13.6,1.3c1.3,0.9,2.4,2.1,3.2,3.5c0.6,1.1,1.1,2.3,1.4,3.6c1.1,4.5-0.2,9.3-3,13.1
		C244,82.1,242.5,83.6,240.8,84.8z M284,53.2l-17.2,52l-8.5-2.5l-0.7-31.4l-4.3,24.2l-9.3-1.5l0.7-7c6.1-5.1,9.3-13.2,7.5-20.6
		c-0.8-3.2-2.4-6.1-4.8-8.2l0.8-8.2l-3.5-0.9l0.2-4.4l16,3.2l5.4,25.5l5.5-22.9L284,53.2z"/>
	<g>
		
			<image style="overflow:visible;opacity:0.15;" width="279" height="108" xlink:href="400CF3461676DB2D.png"  transform="matrix(1 0 0 1 17.2871 10.1841)">
		</image>
		<g>
			<path class="st4" d="M268.9,45.3l-2,8.2l-1.8-9.1L240.5,39l0.2,13.7l3.7,0.8l-0.3,2.5c0,0-0.1,0-0.1-0.1
				c-4.6-2.4-10.3-2.7-15.6-0.6c-1.8,0.7-3.5,1.6-5,2.7l-3.7-23.4h-16.3l-0.4,2.7h-17.2l-2,12l-1.4-1.8c-4.2-5.1-10.2-7.9-16.9-8.1
				l14.6-7.8l-10.2-15.2l-18.4,21.2l3.2,3.9c-2.9,1.2-5.4,2.8-7.5,4.8l-15.8-14l-5.5,10.6l0.2-10.2l-24.7,7.9l0.6,13.2l4.2-1.1
				l0.6,6.7c-4.8-2.2-10.6-2.1-15.9,0.2c-1.6,0.7-3.1,1.5-4.4,2.5c0.9-4.1,0.7-8.1-0.9-11.7c-1.8-4.2-5.1-7.8-9-10
				c-2.8-1.9-6.1-3-9.6-3.4c-8.5-1.5-18.8,0-28.9,4.3c-3.7,1.6-7.2,3.4-10.3,5.4L24,49.1l2.4,4l7.4,12.5c0,0,2.3,3.8,2.3,3.8l4-2
				l0.6-0.3l18.4,41l1.8,3.9l4.1-1.3l9.9-3.2l4.4-1.4l-1.1-4.4l-5.3-20.2c1.5-1.1,2.9-2.3,4.2-3.6c-0.3,2.4-0.1,4.9,0.5,7.2
				c1.4,4.9,4.6,8.8,9.1,10.9c4.8,2.3,10.7,2.3,16.1,0c2.7-1.2,5.2-2.8,7.2-4.9l0.7,8.1l17.4-2.6l0-15.6l36.3,18V81.8
				c1.5-0.1,2.9-0.4,4.4-0.7c4-1,7.4-2.3,10.5-4.1l-1.5,9.3l19.6,3.1l1.1-7l5.1,9.5l3.1-6l1.1,9.9l22.2,3.9l-1.2-7.5
				c3,0.3,6.2-0.1,9.3-1.2c0.7-0.3,1.5-0.6,2.1-1l-0.9,8l14.8,2.1l0.1,6.1l15.4,4.8l20.1-60.5L268.9,45.3L268.9,45.3z M182.1,54.3
				l1-1.1l-1.2,7.6l-3.2-2.9L182.1,54.3z M169,23.1l5.4,7.3L159,38.1l-1.1-1.6L169,23.1z M67.2,79.5l6.1,23.6l-9.9,3.2L43,60.7
				c-1.1,0.6-3.2,1.6-5,2.5l-7.4-12.5c2.9-1.9,6.2-3.5,9.6-5c9.6-4.1,18.8-5.3,26.1-4c2.6,0.3,5.3,1.1,7.7,2.7
				c3.3,1.9,5.8,4.5,7.3,7.9C84.8,60.4,78.9,72.2,67.2,79.5z M109.3,85.3c-2.1,2.9-4.9,5.2-8.3,6.7c-8.6,3.7-17.2,0-19.5-8.2
				c-2.2-7.9,3-17.3,11.3-20.9c5.3-2.3,10.7-1.7,14.5,0.9c2.4,1.6,4.2,4,5,7c0.1,0.3,0.2,0.7,0.2,1c0.2,1.2,0.3,2.3,0.3,3.5
				C112.7,78.8,111.4,82.3,109.3,85.3z M159.7,92l-36.1-18l0.1,18.9l-9.3,1.3l-0.6-7.8c2.9-4.9,3.9-10.8,2.4-16.1
				c-0.8-2.9-2.3-5.5-4.4-7.5l-1.3-15.9l-4.2,1.1l-0.2-4l15-4.5l0.9,15.4l11-15.5l10.8,10.3l-15.1,15.9l14.2,5.6c1.6,3,4,5.5,7,7.4
				c2.9,1.8,6.3,2.9,9.8,3.2L159.7,92L159.7,92z M141,65.8l-5-1.9l4.7-4.5C140.5,61.4,140.6,63.6,141,65.8z M180.3,70.6
				c-3.5,2.9-7.4,4.7-12.6,6c-1.1,0.3-2.3,0.5-3.3,0.5c-8.3,0.8-15.2-3-17.8-9.1c-0.3-0.7-0.6-1.5-0.8-2.3
				c-1.2-5.2-0.2-9.8,2.4-13.5c0.7-1.1,1.6-2,2.6-2.9c2.4-2.2,5.5-3.7,9-4.6c7.9-1.9,14.8,0.5,19.1,5.7l-15,16
				c1,0.2,2.6-0.1,3.8-0.4c3.6-0.9,5.6-2.8,7.3-4.8l6,5.4l1.8,1.6C181.9,69.1,181.1,69.8,180.3,70.6z M212.1,91.9l-3.3-21.6
				l-4.6,11.9l-6.9-14.9h-0.1l-2.7,17.3l-11.5-2l1.6-9.6c0.4-0.4,0.9-0.8,1.3-1.3l3.7-3.8l-3.6-3.3l3.9-23h11.6l2.9,15.9l3.3-18.4
				h8.3l3.5,22.4c-4.4,5-6.5,11.7-5.1,17.9c1.1,4.8,4.1,8.6,8.3,10.9c0.4,0.2,0.9,0.4,1.3,0.6l0.4,2.9L212.1,91.9z M240.8,84.8
				c-1.3,0.9-2.7,1.7-4.2,2.2c-3,1.1-5.9,1.4-8.6,0.8c-1.8-0.4-3.5-1.1-5-2.1c-2.3-1.7-4-4.1-4.8-7.2c-0.9-3.7-0.1-7.7,1.9-11.2
				c1-1.7,2.3-3.3,3.8-4.7c1.7-1.5,3.7-2.8,5.8-3.6c5.1-1.9,10.1-1.2,13.6,1.3c1.3,0.9,2.4,2.1,3.2,3.5c0.6,1.1,1.1,2.3,1.4,3.6
				c1.1,4.5-0.2,9.3-3,13.1C244,82.1,242.5,83.6,240.8,84.8z M284,53.2l-17.2,52l-8.5-2.5l-0.7-31.4l-4.3,24.2l-9.3-1.5l0.7-7
				c6.1-5.1,9.3-13.2,7.5-20.6c-0.8-3.2-2.4-6.1-4.8-8.2l0.8-8.2l-3.5-0.9l0.2-4.4l16,3.2l5.4,25.5l5.5-22.9L284,53.2z"/>
		</g>
	</g>
	<g>
		
			<image style="overflow:visible;opacity:0.15;" width="222" height="74" xlink:href="400CF3461676DB33.png"  transform="matrix(1 0 0 1 50.2871 109.1841)">
		</image>
		<g>
			<g>
				<g>
					<text transform="matrix(1 0 0 1 111.666 141.4405)"><tspan x="0" y="0" class="st4 st5 st6 st7">TACTICAL</tspan><tspan x="1.2" y="26.8" class="st4 st8 st6 st9">ARENA</tspan></text>
					<g>
						<g>
							<line class="st4" x1="56.8" y1="145.2" x2="97.1" y2="145.2"/>
							<g>
								<line class="st10" x1="56.8" y1="145.2" x2="56.8" y2="145.2"/>
								<line class="st11" x1="58.8" y1="145.2" x2="96" y2="145.2"/>
								<line class="st10" x1="97" y1="145.2" x2="97.1" y2="145.2"/>
							</g>
						</g>
						<circle class="st12" cx="100" cy="145.2" r="2.9"/>
						<circle class="st12" cx="100" cy="145.2" r="1.2"/>
						<line class="st12" x1="97" y1="145.2" x2="87.1" y2="145.2"/>
						<line class="st12" x1="83.7" y1="145.2" x2="77.1" y2="145.2"/>
						<line class="st12" x1="73.5" y1="145.2" x2="70.2" y2="145.2"/>
					</g>
					<g>
						<g>
							<line class="st4" x1="265.5" y1="145.2" x2="225.2" y2="145.2"/>
							<g>
								<line class="st10" x1="265.5" y1="145.2" x2="265.4" y2="145.2"/>
								<line class="st11" x1="263.4" y1="145.2" x2="226.2" y2="145.2"/>
								<line class="st10" x1="225.2" y1="145.2" x2="225.2" y2="145.2"/>
							</g>
						</g>
						<circle class="st12" cx="222.2" cy="145.2" r="2.9"/>
						<circle class="st12" cx="222.2" cy="145.2" r="1.2"/>
						<line class="st12" x1="225.2" y1="145.2" x2="235.2" y2="145.2"/>
						<line class="st12" x1="238.6" y1="145.2" x2="245.1" y2="145.2"/>
						<line class="st12" x1="248.8" y1="145.2" x2="252.1" y2="145.2"/>
					</g>
				</g>
			</g>
		</g>
	</g>
</g>
</svg>
